<svg xmlns="http://www.w3.org/2000/svg" xmlns:xlink="http://www.w3.org/1999/xlink" width="50" zoomAndPan="magnify" viewBox="0 0 37.5 37.499999" height="50" preserveAspectRatio="xMidYMid meet" version="1.0"><defs><clipPath id="b9311d583f"><path d="M 1.273438 1.273438 L 36.523438 1.273438 L 36.523438 36.523438 L 1.273438 36.523438 Z M 1.273438 1.273438 " clip-rule="nonzero"/></clipPath></defs><g clip-path="url(#b9311d583f)"><path fill="#000000" d="M 18.886719 1.273438 C 18.898438 1.273438 18.90625 1.273438 18.914062 1.277344 C 19.792969 1.28125 20.585938 1.640625 21.164062 2.214844 C 21.742188 2.796875 22.101562 3.597656 22.101562 4.480469 L 22.105469 4.480469 L 22.105469 15.695312 L 33.320312 15.695312 C 34.203125 15.695312 35.003906 16.054688 35.585938 16.636719 C 36.160156 17.214844 36.523438 18.011719 36.523438 18.886719 C 36.523438 18.898438 36.523438 18.90625 36.523438 18.914062 C 36.519531 19.792969 36.160156 20.585938 35.585938 21.164062 C 35.003906 21.742188 34.203125 22.101562 33.320312 22.101562 L 33.320312 22.105469 L 22.105469 22.105469 L 22.105469 33.320312 C 22.105469 34.203125 21.746094 35.003906 21.164062 35.585938 C 20.585938 36.160156 19.789062 36.523438 18.910156 36.523438 C 18.902344 36.523438 18.894531 36.523438 18.882812 36.523438 C 18.007812 36.519531 17.214844 36.160156 16.636719 35.585938 C 16.058594 35.003906 15.699219 34.203125 15.699219 33.320312 L 15.695312 33.320312 L 15.695312 22.105469 L 4.480469 22.105469 C 3.597656 22.105469 2.796875 21.746094 2.214844 21.164062 C 1.636719 20.585938 1.277344 19.789062 1.277344 18.910156 C 1.273438 18.902344 1.273438 18.894531 1.277344 18.882812 C 1.28125 18.007812 1.640625 17.214844 2.214844 16.636719 C 2.796875 16.058594 3.597656 15.699219 4.480469 15.699219 L 4.480469 15.695312 L 15.695312 15.695312 L 15.695312 4.480469 C 15.695312 3.597656 16.054688 2.796875 16.636719 2.214844 C 17.214844 1.636719 18.011719 1.277344 18.886719 1.273438 " fill-opacity="1" fill-rule="nonzero"/></g></svg>