<svg xmlns="http://www.w3.org/2000/svg" xmlns:xlink="http://www.w3.org/1999/xlink" width="50" zoomAndPan="magnify" viewBox="0 0 37.5 37.499999" height="50" preserveAspectRatio="xMidYMid meet" version="1.0"><defs><clipPath id="fa3d1161e0"><path d="M 20 13 L 35.625 13 L 35.625 26 L 20 26 Z M 20 13 " clip-rule="nonzero"/></clipPath><clipPath id="4bdae871b6"><path d="M 25 21 L 33 21 L 33 28.402344 L 25 28.402344 Z M 25 21 " clip-rule="nonzero"/></clipPath><clipPath id="b27931a7d4"><path d="M 10 21 L 18 21 L 18 28.402344 L 10 28.402344 Z M 10 21 " clip-rule="nonzero"/></clipPath><clipPath id="ef9eb6c4dc"><path d="M 1.875 20 L 12 20 L 12 22 L 1.875 22 Z M 1.875 20 " clip-rule="nonzero"/></clipPath><clipPath id="572c3f18ce"><path d="M 7 8.902344 L 26 8.902344 L 26 26 L 7 26 Z M 7 8.902344 " clip-rule="nonzero"/></clipPath></defs><path fill="#000000" d="M 11.015625 25.617188 L 8.203125 25.617188 C 7.816406 25.617188 7.5 25.304688 7.5 24.917969 C 7.5 24.535156 7.816406 24.222656 8.203125 24.222656 L 11.015625 24.222656 C 11.402344 24.222656 11.71875 24.535156 11.71875 24.917969 C 11.71875 25.304688 11.402344 25.617188 11.015625 25.617188 Z M 11.015625 25.617188 " fill-opacity="1" fill-rule="nonzero"/><g clip-path="url(#fa3d1161e0)"><path fill="#000000" d="M 33.867188 25.617188 L 32.109375 25.617188 C 31.722656 25.617188 31.40625 25.304688 31.40625 24.917969 C 31.40625 24.535156 31.722656 24.222656 32.109375 24.222656 L 33.285156 24.222656 L 34.230469 19.21875 C 34.21875 16.660156 32.011719 14.472656 29.296875 14.472656 L 24.679688 14.472656 L 22.441406 24.222656 L 26.484375 24.222656 C 26.871094 24.222656 27.1875 24.535156 27.1875 24.917969 C 27.1875 25.304688 26.871094 25.617188 26.484375 25.617188 L 21.5625 25.617188 C 21.347656 25.617188 21.144531 25.519531 21.011719 25.355469 C 20.878906 25.1875 20.828125 24.972656 20.875 24.765625 L 23.433594 13.621094 C 23.507812 13.304688 23.789062 13.078125 24.117188 13.078125 L 29.296875 13.078125 C 32.785156 13.078125 35.625 15.890625 35.625 19.347656 L 34.558594 25.046875 C 34.496094 25.378906 34.207031 25.617188 33.867188 25.617188 Z M 33.867188 25.617188 " fill-opacity="1" fill-rule="nonzero"/></g><g clip-path="url(#4bdae871b6)"><path fill="#000000" d="M 29.296875 28.402344 C 27.359375 28.402344 25.78125 26.839844 25.78125 24.917969 C 25.78125 23 27.359375 21.4375 29.296875 21.4375 C 31.234375 21.4375 32.8125 23 32.8125 24.917969 C 32.8125 26.839844 31.234375 28.402344 29.296875 28.402344 Z M 29.296875 22.828125 C 28.132812 22.828125 27.1875 23.765625 27.1875 24.917969 C 27.1875 26.070312 28.132812 27.007812 29.296875 27.007812 C 30.460938 27.007812 31.40625 26.070312 31.40625 24.917969 C 31.40625 23.765625 30.460938 22.828125 29.296875 22.828125 Z M 29.296875 22.828125 " fill-opacity="1" fill-rule="nonzero"/></g><g clip-path="url(#b27931a7d4)"><path fill="#000000" d="M 13.828125 28.402344 C 11.890625 28.402344 10.3125 26.839844 10.3125 24.917969 C 10.3125 23 11.890625 21.4375 13.828125 21.4375 C 15.765625 21.4375 17.34375 23 17.34375 24.917969 C 17.34375 26.839844 15.765625 28.402344 13.828125 28.402344 Z M 13.828125 22.828125 C 12.664062 22.828125 11.71875 23.765625 11.71875 24.917969 C 11.71875 26.070312 12.664062 27.007812 13.828125 27.007812 C 14.992188 27.007812 15.9375 26.070312 15.9375 24.917969 C 15.9375 23.765625 14.992188 22.828125 13.828125 22.828125 Z M 13.828125 22.828125 " fill-opacity="1" fill-rule="nonzero"/></g><path fill="#000000" d="M 11.015625 13.078125 L 5.390625 13.078125 C 5.003906 13.078125 4.6875 12.769531 4.6875 12.382812 C 4.6875 12 5.003906 11.6875 5.390625 11.6875 L 11.015625 11.6875 C 11.402344 11.6875 11.71875 12 11.71875 12.382812 C 11.71875 12.769531 11.402344 13.078125 11.015625 13.078125 Z M 11.015625 13.078125 " fill-opacity="1" fill-rule="nonzero"/><path fill="#000000" d="M 11.015625 17.257812 L 3.984375 17.257812 C 3.597656 17.257812 3.28125 16.945312 3.28125 16.5625 C 3.28125 16.175781 3.597656 15.867188 3.984375 15.867188 L 11.015625 15.867188 C 11.402344 15.867188 11.71875 16.175781 11.71875 16.5625 C 11.71875 16.945312 11.402344 17.257812 11.015625 17.257812 Z M 11.015625 17.257812 " fill-opacity="1" fill-rule="nonzero"/><g clip-path="url(#ef9eb6c4dc)"><path fill="#000000" d="M 11.015625 21.4375 L 2.578125 21.4375 C 2.191406 21.4375 1.875 21.125 1.875 20.742188 C 1.875 20.355469 2.191406 20.042969 2.578125 20.042969 L 11.015625 20.042969 C 11.402344 20.042969 11.71875 20.355469 11.71875 20.742188 C 11.71875 21.125 11.402344 21.4375 11.015625 21.4375 Z M 11.015625 21.4375 " fill-opacity="1" fill-rule="nonzero"/></g><g clip-path="url(#572c3f18ce)"><path fill="#000000" d="M 21.5625 25.617188 L 16.640625 25.617188 C 16.253906 25.617188 15.9375 25.304688 15.9375 24.917969 C 15.9375 24.535156 16.253906 24.222656 16.640625 24.222656 L 21 24.222656 L 24.195312 10.292969 L 8.203125 10.292969 C 7.816406 10.292969 7.5 9.980469 7.5 9.597656 C 7.5 9.214844 7.816406 8.902344 8.203125 8.902344 L 25.078125 8.902344 C 25.292969 8.902344 25.496094 8.996094 25.628906 9.164062 C 25.761719 9.328125 25.8125 9.542969 25.765625 9.75 L 22.25 25.070312 C 22.175781 25.390625 21.890625 25.617188 21.5625 25.617188 Z M 21.5625 25.617188 " fill-opacity="1" fill-rule="nonzero"/></g></svg>