<svg xmlns="http://www.w3.org/2000/svg" xmlns:xlink="http://www.w3.org/1999/xlink" width="50" zoomAndPan="magnify" viewBox="0 0 37.5 37.499999" height="50" preserveAspectRatio="xMidYMid meet" version="1.0"><defs><clipPath id="75d6bb2cf8"><path d="M 3.078125 2 L 34.578125 2 L 34.578125 35.625 L 3.078125 35.625 Z M 3.078125 2 " clip-rule="nonzero"/></clipPath></defs><g clip-path="url(#75d6bb2cf8)"><path fill="#000000" d="M 15.101562 2.003906 C 11.128906 2.003906 7.886719 5.230469 7.886719 9.183594 C 7.886719 13.132812 11.128906 16.359375 15.101562 16.359375 C 19.074219 16.359375 22.3125 13.132812 22.3125 9.183594 C 22.3125 5.230469 19.074219 2.003906 15.101562 2.003906 Z M 15.101562 16.359375 C 8.46875 16.359375 3.078125 21.722656 3.078125 28.316406 L 5.480469 28.316406 C 5.480469 23.039062 9.792969 18.75 15.101562 18.75 C 17.335938 18.75 19.363281 19.542969 21 20.804688 L 22.679688 19.105469 C 20.605469 17.421875 17.984375 16.359375 15.101562 16.359375 Z M 15.101562 4.398438 C 17.769531 4.398438 19.910156 6.527344 19.910156 9.183594 C 19.910156 11.835938 17.769531 13.964844 15.101562 13.964844 C 12.433594 13.964844 10.292969 11.835938 10.292969 9.183594 C 10.292969 6.527344 12.433594 4.398438 15.101562 4.398438 Z M 30.015625 16.367188 C 29.238281 16.375 28.457031 16.675781 27.875 17.273438 L 16.660156 28.617188 L 14.988281 35.605469 L 22.011719 33.953125 L 22.25 33.710938 L 33.425781 22.785156 C 34.617188 21.628906 34.636719 19.675781 33.445312 18.496094 L 32.1875 17.234375 C 31.59375 16.648438 30.804688 16.359375 30.015625 16.367188 Z M 30.035156 18.742188 C 30.195312 18.742188 30.355469 18.804688 30.484375 18.9375 L 31.746094 20.1875 C 32.007812 20.441406 32.007812 20.824219 31.746094 21.085938 L 20.8125 31.765625 L 18.21875 32.390625 L 18.839844 29.8125 L 29.59375 18.9375 C 29.714844 18.804688 29.875 18.742188 30.035156 18.742188 Z M 30.035156 18.742188 " fill-opacity="1" fill-rule="nonzero"/></g></svg>