<svg xmlns="http://www.w3.org/2000/svg" version="1.1" xmlns:xlink="http://www.w3.org/1999/xlink" xmlns:svgjs="http://svgjs.dev/svgjs" viewBox="0 0 2400 800" opacity="0.15"><defs><linearGradient x1="50%" y1="0%" x2="50%" y2="100%" id="sssurf-grad"><stop stop-color="hsl(265, 55%, 30%)" stop-opacity="1" offset="0%"></stop><stop stop-color="hsl(265, 55%, 60%)" stop-opacity="1" offset="100%"></stop></linearGradient></defs><g fill="url(#sssurf-grad)" transform="matrix(1,0,0,1,-1.936279296875,229.11270141601562)"><path d="M-10,10C158.75,17.083333333333336,464.58333333333337,82.125,800,44C1135.4166666666665,5.875,1266.6666666666665,-191.54166666666666,1600,-173C1933.3333333333335,-154.45833333333334,2181.25,13.625,2400,133C2618.75,252.375,3254.1666666666665,240.20833333333334,2650,400C2045.8333333333335,559.7916666666666,156.25,795.8333333333334,-500,900" transform="matrix(1,0,0,1,0,104)" opacity="0.05"></path><path d="M-10,10C158.75,17.083333333333336,464.58333333333337,82.125,800,44C1135.4166666666665,5.875,1266.6666666666665,-191.54166666666666,1600,-173C1933.3333333333335,-154.45833333333334,2181.25,13.625,2400,133C2618.75,252.375,3254.1666666666665,240.20833333333334,2650,400C2045.8333333333335,559.7916666666666,156.25,795.8333333333334,-500,900" transform="matrix(1,0,0,1,0,208)" opacity="0.53"></path><path d="M-10,10C158.75,17.083333333333336,464.58333333333337,82.125,800,44C1135.4166666666665,5.875,1266.6666666666665,-191.54166666666666,1600,-173C1933.3333333333335,-154.45833333333334,2181.25,13.625,2400,133C2618.75,252.375,3254.1666666666665,240.20833333333334,2650,400C2045.8333333333335,559.7916666666666,156.25,795.8333333333334,-500,900" transform="matrix(1,0,0,1,0,312)" opacity="1.00"></path></g></svg>