<svg xmlns="http://www.w3.org/2000/svg" xmlns:xlink="http://www.w3.org/1999/xlink" width="50" zoomAndPan="magnify" viewBox="0 0 37.5 37.499999" height="50" preserveAspectRatio="xMidYMid meet" version="1.0"><defs><clipPath id="7c9e756e6d"><path d="M 2.664062 2.664062 L 34.914062 2.664062 L 34.914062 34.914062 L 2.664062 34.914062 Z M 2.664062 2.664062 " clip-rule="nonzero"/></clipPath></defs><path fill="#000000" d="M 13.09375 9.492188 C 13.167969 9.492188 13.496094 9.339844 13.570312 9.289062 C 13.824219 9.164062 13.898438 8.835938 13.773438 8.609375 C 13.648438 8.355469 13.320312 8.28125 13.09375 8.40625 C 13.019531 8.457031 12.941406 8.507812 12.867188 8.53125 C 12.613281 8.683594 12.539062 8.988281 12.691406 9.214844 C 12.742188 9.390625 12.917969 9.492188 13.09375 9.492188 Z M 13.09375 9.492188 " fill-opacity="1" fill-rule="nonzero"/><path fill="#000000" d="M 11.179688 10.875 C 11.304688 10.875 11.429688 10.824219 11.507812 10.75 C 11.554688 10.699219 11.632812 10.648438 11.683594 10.574219 C 11.882812 10.398438 11.910156 10.070312 11.734375 9.867188 C 11.554688 9.667969 11.230469 9.640625 11.027344 9.816406 C 10.953125 9.867188 10.875 9.945312 10.824219 9.996094 C 10.625 10.171875 10.597656 10.5 10.800781 10.699219 C 10.902344 10.824219 11.050781 10.875 11.179688 10.875 Z M 11.179688 10.875 " fill-opacity="1" fill-rule="nonzero"/><path fill="#000000" d="M 7.574219 16.949219 C 7.601562 16.949219 7.652344 16.949219 7.675781 16.949219 C 7.902344 16.949219 8.128906 16.796875 8.179688 16.546875 C 8.207031 16.46875 8.207031 16.367188 8.230469 16.292969 C 8.304688 16.015625 8.128906 15.738281 7.851562 15.6875 C 7.574219 15.636719 7.296875 15.789062 7.246094 16.066406 C 7.222656 16.167969 7.199219 16.242188 7.199219 16.34375 C 7.148438 16.621094 7.324219 16.898438 7.574219 16.949219 Z M 7.574219 16.949219 " fill-opacity="1" fill-rule="nonzero"/><path fill="#000000" d="M 7.953125 18.789062 C 7.953125 18.710938 7.953125 18.636719 7.953125 18.5625 C 7.953125 18.285156 7.726562 18.058594 7.449219 18.058594 C 7.171875 18.058594 6.945312 18.285156 6.945312 18.5625 C 6.945312 18.636719 6.945312 18.738281 6.945312 18.8125 L 6.945312 18.835938 C 6.945312 19.113281 7.171875 19.339844 7.449219 19.339844 C 7.726562 19.339844 7.953125 19.066406 7.953125 18.789062 Z M 7.953125 18.789062 " fill-opacity="1" fill-rule="nonzero"/><path fill="#000000" d="M 8.785156 22.96875 C 8.683594 22.71875 8.382812 22.59375 8.128906 22.691406 C 7.878906 22.792969 7.75 23.097656 7.851562 23.347656 C 7.878906 23.421875 7.929688 23.523438 7.953125 23.601562 C 8.027344 23.777344 8.230469 23.902344 8.40625 23.902344 C 8.484375 23.902344 8.558594 23.875 8.609375 23.851562 C 8.859375 23.726562 8.988281 23.449219 8.859375 23.195312 C 8.859375 23.144531 8.835938 23.070312 8.785156 22.96875 Z M 8.785156 22.96875 " fill-opacity="1" fill-rule="nonzero"/><path fill="#000000" d="M 8.179688 21.054688 C 8.15625 20.980469 8.15625 20.878906 8.128906 20.804688 C 8.078125 20.527344 7.800781 20.347656 7.550781 20.398438 C 7.273438 20.449219 7.097656 20.726562 7.148438 20.980469 C 7.171875 21.082031 7.171875 21.15625 7.199219 21.257812 C 7.246094 21.484375 7.449219 21.660156 7.703125 21.660156 C 7.726562 21.660156 7.777344 21.660156 7.800781 21.660156 C 8.078125 21.609375 8.253906 21.332031 8.179688 21.054688 Z M 8.179688 21.054688 " fill-opacity="1" fill-rule="nonzero"/><path fill="#000000" d="M 15.261719 8.507812 C 15.308594 8.507812 15.585938 8.433594 15.664062 8.40625 C 15.941406 8.332031 16.089844 8.054688 15.992188 7.777344 C 15.914062 7.5 15.636719 7.347656 15.359375 7.449219 C 15.285156 7.476562 15.183594 7.5 15.109375 7.523438 C 14.855469 7.601562 14.707031 7.902344 14.78125 8.15625 C 14.832031 8.382812 15.035156 8.507812 15.261719 8.507812 Z M 15.261719 8.507812 " fill-opacity="1" fill-rule="nonzero"/><path fill="#000000" d="M 8.207031 14.65625 C 8.28125 14.679688 8.332031 14.707031 8.40625 14.707031 C 8.609375 14.707031 8.785156 14.605469 8.859375 14.402344 C 8.886719 14.328125 8.9375 14.253906 8.960938 14.175781 C 9.085938 13.925781 8.960938 13.621094 8.710938 13.496094 C 8.457031 13.371094 8.15625 13.496094 8.027344 13.75 C 7.980469 13.824219 7.953125 13.925781 7.902344 14 C 7.851562 14.253906 7.953125 14.554688 8.207031 14.65625 Z M 8.207031 14.65625 " fill-opacity="1" fill-rule="nonzero"/><path fill="#000000" d="M 28.765625 14.578125 C 28.839844 14.78125 29.042969 14.882812 29.21875 14.882812 C 29.292969 14.882812 29.34375 14.855469 29.417969 14.832031 C 29.671875 14.730469 29.796875 14.429688 29.695312 14.175781 C 29.671875 14.101562 29.621094 14 29.597656 13.925781 C 29.46875 13.671875 29.191406 13.546875 28.941406 13.671875 C 28.6875 13.796875 28.5625 14.074219 28.6875 14.328125 C 28.714844 14.429688 28.738281 14.503906 28.765625 14.578125 Z M 28.765625 14.578125 " fill-opacity="1" fill-rule="nonzero"/><path fill="#000000" d="M 27.679688 12.589844 C 27.78125 12.742188 27.933594 12.816406 28.085938 12.816406 C 28.183594 12.816406 28.285156 12.789062 28.363281 12.714844 C 28.589844 12.5625 28.640625 12.238281 28.488281 12.011719 C 28.4375 11.933594 28.386719 11.859375 28.335938 11.78125 C 28.160156 11.554688 27.859375 11.507812 27.632812 11.683594 C 27.402344 11.859375 27.355469 12.160156 27.53125 12.386719 C 27.582031 12.464844 27.632812 12.515625 27.679688 12.589844 Z M 27.679688 12.589844 " fill-opacity="1" fill-rule="nonzero"/><path fill="#000000" d="M 29.371094 16.496094 C 29.394531 16.570312 29.394531 16.671875 29.417969 16.746094 C 29.46875 17 29.671875 17.148438 29.921875 17.148438 C 29.949219 17.148438 30 17.148438 30.023438 17.148438 C 30.300781 17.097656 30.476562 16.820312 30.425781 16.570312 C 30.402344 16.46875 30.402344 16.394531 30.378906 16.292969 C 30.328125 16.015625 30.050781 15.839844 29.773438 15.914062 C 29.496094 15.941406 29.320312 16.21875 29.371094 16.496094 Z M 29.371094 16.496094 " fill-opacity="1" fill-rule="nonzero"/><path fill="#000000" d="M 24.179688 9.390625 C 24.253906 9.441406 24.332031 9.464844 24.40625 9.515625 C 24.480469 9.566406 24.582031 9.589844 24.65625 9.589844 C 24.835938 9.589844 24.984375 9.515625 25.085938 9.339844 C 25.238281 9.113281 25.160156 8.785156 24.910156 8.660156 C 24.835938 8.609375 24.757812 8.558594 24.683594 8.507812 C 24.429688 8.382812 24.128906 8.457031 24.003906 8.683594 C 23.851562 8.9375 23.925781 9.238281 24.179688 9.390625 Z M 24.179688 9.390625 " fill-opacity="1" fill-rule="nonzero"/><path fill="#000000" d="M 17.578125 8.027344 C 17.601562 8.027344 17.804688 8.003906 17.878906 8.003906 C 18.15625 7.980469 18.359375 7.726562 18.332031 7.449219 C 18.308594 7.171875 18.058594 6.972656 17.78125 6.996094 C 17.679688 6.996094 17.601562 7.019531 17.503906 7.019531 C 17.226562 7.046875 17.023438 7.296875 17.050781 7.574219 C 17.097656 7.828125 17.324219 8.027344 17.578125 8.027344 Z M 17.578125 8.027344 " fill-opacity="1" fill-rule="nonzero"/><path fill="#000000" d="M 19.894531 8.003906 C 19.972656 8.003906 20.074219 8.027344 20.148438 8.027344 C 20.171875 8.027344 20.199219 8.027344 20.199219 8.027344 C 20.449219 8.027344 20.675781 7.851562 20.703125 7.574219 C 20.726562 7.296875 20.550781 7.046875 20.273438 7.019531 C 20.171875 7.019531 20.097656 6.996094 19.996094 6.996094 C 19.71875 6.972656 19.46875 7.171875 19.441406 7.449219 C 19.417969 7.726562 19.617188 7.980469 19.894531 8.003906 Z M 19.894531 8.003906 " fill-opacity="1" fill-rule="nonzero"/><path fill="#000000" d="M 22.113281 8.457031 C 22.1875 8.484375 22.464844 8.558594 22.515625 8.558594 C 22.71875 8.558594 22.917969 8.433594 22.996094 8.230469 C 23.097656 7.980469 22.945312 7.675781 22.691406 7.601562 C 22.617188 7.574219 22.515625 7.550781 22.441406 7.523438 C 22.1875 7.449219 21.886719 7.574219 21.8125 7.851562 C 21.683594 8.105469 21.835938 8.382812 22.113281 8.457031 Z M 22.113281 8.457031 " fill-opacity="1" fill-rule="nonzero"/><path fill="#000000" d="M 15.460938 29.09375 C 15.386719 29.066406 15.308594 29.042969 15.234375 29.015625 C 14.984375 28.914062 14.679688 29.066406 14.605469 29.320312 C 14.503906 29.570312 14.65625 29.875 14.90625 29.949219 C 14.984375 29.972656 15.082031 30 15.160156 30.050781 C 15.210938 30.074219 15.261719 30.074219 15.308594 30.074219 C 15.511719 30.074219 15.714844 29.949219 15.789062 29.722656 C 15.863281 29.46875 15.714844 29.191406 15.460938 29.09375 Z M 15.460938 29.09375 " fill-opacity="1" fill-rule="nonzero"/><path fill="#000000" d="M 26.671875 9.96875 C 26.472656 9.792969 26.144531 9.792969 25.96875 10.019531 C 25.792969 10.222656 25.792969 10.546875 26.019531 10.726562 C 26.070312 10.773438 26.144531 10.824219 26.195312 10.902344 C 26.296875 11.003906 26.421875 11.027344 26.546875 11.027344 C 26.671875 11.027344 26.824219 10.976562 26.925781 10.875 C 27.128906 10.675781 27.101562 10.347656 26.898438 10.171875 C 26.824219 10.09375 26.75 10.019531 26.671875 9.96875 Z M 26.671875 9.96875 " fill-opacity="1" fill-rule="nonzero"/><path fill="#000000" d="M 28.261719 25.035156 C 28.035156 24.859375 27.730469 24.910156 27.554688 25.136719 C 27.503906 25.210938 27.453125 25.261719 27.402344 25.339844 C 27.226562 25.566406 27.277344 25.867188 27.503906 26.042969 C 27.605469 26.121094 27.707031 26.144531 27.808594 26.144531 C 27.957031 26.144531 28.109375 26.070312 28.210938 25.941406 C 28.261719 25.867188 28.3125 25.792969 28.386719 25.714844 C 28.539062 25.515625 28.488281 25.210938 28.261719 25.035156 Z M 28.261719 25.035156 " fill-opacity="1" fill-rule="nonzero"/><path fill="#000000" d="M 26.042969 26.824219 C 25.992188 26.875 25.917969 26.925781 25.867188 27 C 25.664062 27.175781 25.640625 27.503906 25.816406 27.707031 C 25.917969 27.832031 26.070312 27.882812 26.195312 27.882812 C 26.320312 27.882812 26.421875 27.832031 26.523438 27.757812 C 26.597656 27.707031 26.671875 27.632812 26.722656 27.582031 C 26.925781 27.402344 26.949219 27.078125 26.75 26.875 C 26.574219 26.671875 26.246094 26.648438 26.042969 26.824219 Z M 26.042969 26.824219 " fill-opacity="1" fill-rule="nonzero"/><path fill="#000000" d="M 24.203125 28.160156 C 24.128906 28.210938 24.054688 28.234375 23.976562 28.285156 C 23.726562 28.410156 23.648438 28.714844 23.777344 28.964844 C 23.875 29.144531 24.027344 29.21875 24.230469 29.21875 C 24.304688 29.21875 24.632812 29.066406 24.707031 29.015625 C 24.960938 28.867188 25.035156 28.5625 24.882812 28.335938 C 24.757812 28.109375 24.457031 28.035156 24.203125 28.160156 Z M 24.203125 28.160156 " fill-opacity="1" fill-rule="nonzero"/><path fill="#000000" d="M 9.894531 24.960938 C 9.742188 24.734375 9.414062 24.683594 9.1875 24.835938 C 8.960938 24.984375 8.910156 25.3125 9.0625 25.539062 C 9.113281 25.617188 9.164062 25.691406 9.214844 25.765625 C 9.3125 25.890625 9.464844 25.96875 9.617188 25.96875 C 9.71875 25.96875 9.816406 25.941406 9.917969 25.867188 C 10.144531 25.691406 10.195312 25.386719 10.019531 25.160156 C 9.96875 25.113281 9.945312 25.035156 9.894531 24.960938 Z M 9.894531 24.960938 " fill-opacity="1" fill-rule="nonzero"/><path fill="#000000" d="M 29.972656 20.652344 C 29.695312 20.601562 29.445312 20.777344 29.371094 21.03125 C 29.34375 21.105469 29.34375 21.207031 29.320312 21.28125 C 29.242188 21.558594 29.417969 21.835938 29.695312 21.886719 C 29.746094 21.886719 29.773438 21.910156 29.824219 21.910156 C 30.050781 21.910156 30.25 21.761719 30.300781 21.535156 C 30.328125 21.433594 30.351562 21.355469 30.351562 21.257812 C 30.425781 20.980469 30.25 20.703125 29.972656 20.652344 Z M 29.972656 20.652344 " fill-opacity="1" fill-rule="nonzero"/><path fill="#000000" d="M 29.34375 22.945312 C 29.09375 22.84375 28.789062 22.945312 28.6875 23.195312 C 28.664062 23.273438 28.613281 23.347656 28.589844 23.421875 C 28.460938 23.675781 28.589844 23.976562 28.839844 24.105469 C 28.914062 24.128906 28.992188 24.152344 29.066406 24.152344 C 29.269531 24.152344 29.445312 24.054688 29.519531 23.875 C 29.570312 23.800781 29.597656 23.699219 29.648438 23.625 C 29.722656 23.347656 29.597656 23.046875 29.34375 22.945312 Z M 29.34375 22.945312 " fill-opacity="1" fill-rule="nonzero"/><path fill="#000000" d="M 30.125 18.234375 C 29.847656 18.234375 29.621094 18.460938 29.621094 18.738281 L 29.621094 18.789062 C 29.621094 18.863281 29.621094 18.964844 29.621094 19.039062 C 29.621094 19.316406 29.824219 19.542969 30.125 19.542969 C 30.402344 19.542969 30.628906 19.316406 30.628906 19.039062 C 30.628906 18.9375 30.628906 18.710938 30.628906 18.710938 C 30.628906 18.460938 30.402344 18.234375 30.125 18.234375 Z M 30.125 18.234375 " fill-opacity="1" fill-rule="nonzero"/><path fill="#000000" d="M 11.355469 26.671875 C 11.152344 26.472656 10.824219 26.496094 10.648438 26.699219 C 10.449219 26.898438 10.472656 27.226562 10.675781 27.402344 C 10.75 27.480469 10.800781 27.53125 10.875 27.582031 C 10.976562 27.65625 11.101562 27.707031 11.203125 27.707031 C 11.328125 27.707031 11.480469 27.65625 11.582031 27.53125 C 11.757812 27.328125 11.757812 27 11.53125 26.824219 C 11.480469 26.800781 11.429688 26.722656 11.355469 26.671875 Z M 11.355469 26.671875 " fill-opacity="1" fill-rule="nonzero"/><path fill="#000000" d="M 17.679688 29.570312 C 17.601562 29.570312 17.503906 29.546875 17.425781 29.546875 C 17.148438 29.519531 16.898438 29.695312 16.871094 29.972656 C 16.847656 30.25 17.023438 30.503906 17.300781 30.527344 C 17.402344 30.527344 17.601562 30.554688 17.628906 30.554688 C 17.878906 30.554688 18.105469 30.351562 18.132812 30.101562 C 18.132812 29.847656 17.929688 29.597656 17.679688 29.570312 Z M 17.679688 29.570312 " fill-opacity="1" fill-rule="nonzero"/><path fill="#000000" d="M 10.070312 11.53125 C 9.84375 11.355469 9.539062 11.40625 9.363281 11.632812 C 9.3125 11.707031 9.261719 11.78125 9.1875 11.859375 C 9.035156 12.085938 9.085938 12.386719 9.289062 12.5625 C 9.390625 12.640625 9.492188 12.664062 9.589844 12.664062 C 9.742188 12.664062 9.894531 12.589844 9.996094 12.464844 C 10.042969 12.386719 10.09375 12.335938 10.144531 12.261719 C 10.320312 12.011719 10.269531 11.707031 10.070312 11.53125 Z M 10.070312 11.53125 " fill-opacity="1" fill-rule="nonzero"/><path fill="#000000" d="M 13.371094 28.183594 C 13.292969 28.136719 13.21875 28.109375 13.144531 28.058594 C 12.917969 27.90625 12.589844 27.984375 12.464844 28.234375 C 12.3125 28.460938 12.386719 28.789062 12.640625 28.941406 C 12.714844 28.992188 13.042969 29.144531 13.117188 29.144531 C 13.292969 29.144531 13.472656 29.042969 13.546875 28.890625 C 13.699219 28.640625 13.621094 28.3125 13.371094 28.183594 Z M 13.371094 28.183594 " fill-opacity="1" fill-rule="nonzero"/><path fill="#000000" d="M 22.136719 29.09375 C 22.0625 29.117188 21.988281 29.144531 21.886719 29.167969 C 21.609375 29.242188 21.457031 29.519531 21.558594 29.796875 C 21.632812 30.023438 21.835938 30.152344 22.039062 30.152344 C 22.089844 30.152344 22.363281 30.074219 22.441406 30.050781 C 22.71875 29.972656 22.84375 29.671875 22.769531 29.417969 C 22.691406 29.144531 22.414062 29.015625 22.136719 29.09375 Z M 22.136719 29.09375 " fill-opacity="1" fill-rule="nonzero"/><path fill="#000000" d="M 19.921875 29.570312 C 19.84375 29.570312 19.746094 29.597656 19.667969 29.597656 C 19.390625 29.621094 19.191406 29.875 19.214844 30.152344 C 19.242188 30.402344 19.46875 30.605469 19.71875 30.605469 C 19.746094 30.605469 19.945312 30.578125 20.046875 30.578125 C 20.324219 30.554688 20.527344 30.300781 20.5 30.023438 C 20.449219 29.722656 20.199219 29.546875 19.921875 29.570312 Z M 19.921875 29.570312 " fill-opacity="1" fill-rule="nonzero"/><g clip-path="url(#7c9e756e6d)"><path fill="#000000" d="M 33.90625 20.625 C 34.382812 20.097656 34.914062 19.519531 34.914062 18.789062 C 34.914062 18.058594 34.382812 17.476562 33.90625 16.949219 C 33.578125 16.59375 33.25 16.21875 33.199219 15.914062 C 33.125 15.585938 33.300781 15.109375 33.476562 14.65625 C 33.726562 13.976562 33.980469 13.269531 33.703125 12.613281 C 33.425781 11.960938 32.71875 11.605469 32.066406 11.304688 C 31.636719 11.101562 31.183594 10.875 31.007812 10.625 C 30.832031 10.371094 30.804688 9.84375 30.78125 9.363281 C 30.753906 8.632812 30.703125 7.878906 30.199219 7.375 C 29.695312 6.871094 28.941406 6.820312 28.210938 6.792969 C 27.730469 6.769531 27.226562 6.742188 26.949219 6.566406 C 26.699219 6.390625 26.472656 5.9375 26.269531 5.507812 C 25.96875 4.878906 25.640625 4.148438 24.960938 3.871094 C 24.304688 3.59375 23.601562 3.847656 22.917969 4.097656 C 22.464844 4.273438 21.988281 4.425781 21.660156 4.375 C 21.355469 4.324219 21.003906 3.972656 20.625 3.671875 C 20.097656 3.191406 19.519531 2.664062 18.789062 2.664062 C 18.058594 2.664062 17.476562 3.191406 16.949219 3.671875 C 16.59375 3.996094 16.21875 4.324219 15.914062 4.375 C 15.585938 4.453125 15.109375 4.273438 14.65625 4.097656 C 13.976562 3.847656 13.269531 3.59375 12.613281 3.871094 C 11.960938 4.148438 11.605469 4.855469 11.304688 5.507812 C 11.101562 5.9375 10.875 6.390625 10.625 6.566406 C 10.371094 6.742188 9.84375 6.769531 9.363281 6.792969 C 8.632812 6.820312 7.878906 6.871094 7.375 7.375 C 6.871094 7.878906 6.820312 8.632812 6.792969 9.363281 C 6.769531 9.84375 6.742188 10.347656 6.566406 10.625 C 6.390625 10.875 5.9375 11.101562 5.507812 11.304688 C 4.878906 11.605469 4.148438 11.933594 3.871094 12.613281 C 3.59375 13.269531 3.847656 13.976562 4.097656 14.65625 C 4.273438 15.109375 4.425781 15.585938 4.375 15.914062 C 4.324219 16.21875 3.972656 16.570312 3.671875 16.949219 C 3.191406 17.476562 2.664062 18.058594 2.664062 18.789062 C 2.664062 19.519531 3.191406 20.097656 3.671875 20.625 C 3.996094 20.980469 4.324219 21.355469 4.375 21.660156 C 4.453125 21.988281 4.273438 22.464844 4.097656 22.917969 C 3.847656 23.601562 3.59375 24.304688 3.871094 24.960938 C 4.148438 25.617188 4.855469 25.96875 5.507812 26.269531 C 5.9375 26.472656 6.390625 26.699219 6.566406 26.949219 C 6.742188 27.203125 6.769531 27.730469 6.792969 28.210938 C 6.820312 28.941406 6.871094 29.695312 7.375 30.199219 C 7.878906 30.703125 8.632812 30.753906 9.363281 30.78125 C 9.84375 30.804688 10.347656 30.832031 10.625 31.007812 C 10.875 31.183594 11.101562 31.636719 11.304688 32.066406 C 11.605469 32.695312 11.933594 33.425781 12.613281 33.703125 C 13.269531 33.980469 13.976562 33.726562 14.65625 33.476562 C 15.109375 33.300781 15.613281 33.148438 15.914062 33.199219 C 16.21875 33.25 16.570312 33.601562 16.949219 33.90625 C 17.476562 34.382812 18.058594 34.914062 18.789062 34.914062 C 19.519531 34.914062 20.097656 34.382812 20.625 33.90625 C 20.980469 33.578125 21.355469 33.25 21.660156 33.199219 C 21.988281 33.148438 22.464844 33.300781 22.917969 33.476562 C 23.601562 33.726562 24.304688 33.980469 24.960938 33.703125 C 25.617188 33.425781 25.96875 32.71875 26.269531 32.066406 C 26.472656 31.636719 26.699219 31.183594 26.949219 31.007812 C 27.203125 30.832031 27.730469 30.804688 28.210938 30.78125 C 28.941406 30.753906 29.695312 30.703125 30.199219 30.199219 C 30.703125 29.695312 30.753906 28.941406 30.78125 28.210938 C 30.804688 27.730469 30.832031 27.226562 31.007812 26.949219 C 31.183594 26.699219 31.636719 26.472656 32.066406 26.269531 C 32.695312 25.96875 33.425781 25.640625 33.703125 24.960938 C 33.980469 24.304688 33.726562 23.601562 33.476562 22.917969 C 33.300781 22.464844 33.148438 21.988281 33.199219 21.660156 C 33.25 21.355469 33.578125 20.980469 33.90625 20.625 Z M 33.148438 19.945312 C 32.746094 20.398438 32.316406 20.878906 32.191406 21.457031 C 32.066406 22.039062 32.292969 22.667969 32.492188 23.246094 C 32.671875 23.75 32.847656 24.28125 32.746094 24.558594 C 32.621094 24.859375 32.117188 25.113281 31.613281 25.339844 C 31.058594 25.617188 30.476562 25.867188 30.152344 26.371094 C 29.824219 26.875 29.796875 27.503906 29.746094 28.136719 C 29.722656 28.664062 29.695312 29.242188 29.46875 29.46875 C 29.242188 29.695312 28.6875 29.722656 28.136719 29.746094 C 27.503906 29.773438 26.875 29.824219 26.371094 30.152344 C 25.890625 30.476562 25.617188 31.058594 25.339844 31.613281 C 25.113281 32.089844 24.859375 32.621094 24.558594 32.746094 C 24.253906 32.871094 23.75 32.671875 23.246094 32.492188 C 22.640625 32.292969 22.039062 32.066406 21.457031 32.191406 C 20.878906 32.292969 20.425781 32.71875 19.945312 33.148438 C 19.542969 33.527344 19.113281 33.90625 18.789062 33.90625 C 18.460938 33.90625 18.03125 33.527344 17.628906 33.148438 C 17.175781 32.746094 16.695312 32.316406 16.117188 32.191406 C 15.992188 32.167969 15.890625 32.167969 15.765625 32.167969 C 15.285156 32.167969 14.78125 32.34375 14.300781 32.519531 C 13.796875 32.695312 13.269531 32.871094 12.992188 32.769531 C 12.691406 32.644531 12.4375 32.140625 12.210938 31.636719 C 11.933594 31.082031 11.683594 30.503906 11.179688 30.175781 C 10.675781 29.847656 10.042969 29.824219 9.414062 29.773438 C 8.886719 29.746094 8.304688 29.722656 8.078125 29.496094 C 7.851562 29.269531 7.828125 28.714844 7.800781 28.160156 C 7.777344 27.53125 7.726562 26.898438 7.398438 26.394531 C 7.070312 25.917969 6.492188 25.640625 5.9375 25.363281 C 5.460938 25.136719 4.929688 24.882812 4.804688 24.582031 C 4.679688 24.28125 4.878906 23.777344 5.054688 23.273438 C 5.257812 22.667969 5.484375 22.0625 5.359375 21.484375 C 5.257812 20.902344 4.828125 20.449219 4.402344 19.972656 C 4.046875 19.542969 3.671875 19.140625 3.671875 18.789062 C 3.671875 18.433594 4.046875 18.03125 4.425781 17.628906 C 4.828125 17.175781 5.257812 16.695312 5.382812 16.117188 C 5.507812 15.539062 5.28125 14.90625 5.082031 14.328125 C 4.90625 13.824219 4.730469 13.292969 4.828125 13.019531 C 4.957031 12.714844 5.460938 12.464844 5.964844 12.238281 C 6.515625 11.960938 7.097656 11.707031 7.425781 11.203125 C 7.75 10.699219 7.777344 10.070312 7.828125 9.441406 C 7.851562 8.910156 7.878906 8.332031 8.105469 8.105469 C 8.332031 7.878906 8.886719 7.851562 9.441406 7.828125 C 10.070312 7.800781 10.699219 7.753906 11.203125 7.425781 C 11.683594 7.097656 11.960938 6.515625 12.238281 5.964844 C 12.464844 5.484375 12.714844 4.957031 13.019531 4.828125 C 13.320312 4.703125 13.824219 4.90625 14.328125 5.082031 C 14.933594 5.28125 15.539062 5.507812 16.117188 5.382812 C 16.695312 5.28125 17.148438 4.855469 17.628906 4.425781 C 18.03125 4.046875 18.433594 3.671875 18.789062 3.671875 C 19.140625 3.671875 19.542969 4.046875 19.945312 4.425781 C 20.398438 4.828125 20.878906 5.257812 21.457031 5.382812 C 22.039062 5.507812 22.667969 5.28125 23.246094 5.082031 C 23.75 4.90625 24.28125 4.703125 24.558594 4.828125 C 24.859375 4.957031 25.113281 5.460938 25.339844 5.964844 C 25.617188 6.515625 25.867188 7.097656 26.371094 7.425781 C 26.875 7.75 27.503906 7.777344 28.136719 7.828125 C 28.664062 7.851562 29.242188 7.878906 29.46875 8.105469 C 29.695312 8.332031 29.722656 8.886719 29.746094 9.441406 C 29.773438 10.070312 29.824219 10.699219 30.152344 11.203125 C 30.476562 11.683594 31.058594 11.960938 31.613281 12.238281 C 32.089844 12.464844 32.621094 12.714844 32.746094 13.019531 C 32.871094 13.320312 32.671875 13.824219 32.492188 14.328125 C 32.292969 14.933594 32.066406 15.539062 32.191406 16.117188 C 32.292969 16.695312 32.71875 17.148438 33.148438 17.628906 C 33.527344 18.03125 33.90625 18.460938 33.90625 18.789062 C 33.90625 19.113281 33.527344 19.542969 33.148438 19.945312 Z M 33.148438 19.945312 " fill-opacity="1" fill-rule="nonzero"/></g><path fill="#000000" d="M 25.84375 24.28125 C 25.714844 24.304688 25.589844 24.332031 25.488281 24.332031 C 25.261719 24.332031 25.0625 24.28125 24.835938 24.179688 L 24.835938 24.835938 C 24.835938 25.113281 24.609375 25.3125 24.332031 25.3125 L 13.246094 25.3125 C 12.96875 25.3125 12.742188 25.085938 12.742188 24.835938 L 12.742188 20.980469 C 12.742188 20.828125 12.742188 20.398438 12.839844 20.121094 C 12.96875 19.71875 13.421875 19.519531 13.421875 19.519531 C 13.421875 19.519531 13.445312 19.519531 13.445312 19.492188 L 16.367188 17.878906 L 18.382812 20.25 C 18.484375 20.375 18.609375 20.425781 18.789062 20.425781 L 18.835938 20.425781 C 18.988281 20.425781 19.113281 20.347656 19.214844 20.25 L 21.257812 17.878906 L 22.1875 18.410156 L 22.363281 18.382812 L 22.71875 17.628906 C 22.71875 17.601562 22.742188 17.601562 22.742188 17.578125 L 21.355469 16.820312 C 21.308594 16.796875 21.257812 16.773438 21.179688 16.773438 L 21.179688 15.765625 C 21.507812 15.285156 21.683594 14.730469 21.683594 14.101562 L 21.683594 12.363281 C 21.683594 10.75 20.425781 9.464844 18.886719 9.464844 L 18.6875 9.464844 C 17.148438 9.464844 15.890625 10.773438 15.890625 12.363281 L 15.890625 14.101562 C 15.890625 14.707031 16.066406 15.285156 16.394531 15.765625 L 16.394531 16.773438 C 16.34375 16.773438 16.292969 16.796875 16.21875 16.820312 L 12.96875 18.609375 C 12.816406 18.6875 12.109375 19.066406 11.859375 19.84375 C 11.734375 20.347656 11.734375 20.953125 11.734375 21.003906 L 11.734375 24.835938 C 11.734375 25.664062 12.414062 26.320312 13.246094 26.320312 L 24.332031 26.320312 C 25.160156 26.320312 25.84375 25.640625 25.84375 24.835938 Z M 18.789062 19.191406 L 17.402344 17.578125 L 17.402344 16.695312 C 17.78125 16.898438 18.234375 17.023438 18.6875 17.023438 L 18.886719 17.023438 C 19.339844 17.023438 19.796875 16.898438 20.171875 16.695312 L 20.171875 17.578125 Z M 16.898438 12.363281 C 16.898438 11.304688 17.703125 10.472656 18.6875 10.472656 L 18.886719 10.472656 C 19.871094 10.472656 20.675781 11.328125 20.675781 12.363281 L 20.675781 14.101562 C 20.675781 15.160156 19.871094 15.992188 18.886719 15.992188 L 18.6875 15.992188 C 17.703125 15.992188 16.898438 15.132812 16.898438 14.101562 Z M 16.898438 12.363281 " fill-opacity="1" fill-rule="nonzero"/><path fill="#000000" d="M 21.332031 19.84375 C 21.28125 20.023438 21.308594 20.222656 21.457031 20.347656 L 22.414062 21.332031 L 22.1875 22.71875 C 22.164062 22.917969 22.238281 23.097656 22.390625 23.222656 C 22.542969 23.324219 22.742188 23.347656 22.917969 23.246094 L 24.078125 22.617188 C 24.078125 22.617188 25.238281 23.246094 25.238281 23.246094 C 25.414062 23.347656 25.617188 23.324219 25.765625 23.222656 C 25.917969 23.121094 25.992188 22.917969 25.96875 22.71875 L 25.742188 21.332031 L 26.699219 20.347656 C 26.824219 20.222656 26.875 20.023438 26.824219 19.84375 C 26.773438 19.667969 26.597656 19.542969 26.421875 19.519531 L 25.113281 19.316406 L 24.53125 18.058594 C 24.457031 17.878906 24.28125 17.753906 24.078125 17.753906 C 23.875 17.753906 23.699219 17.855469 23.625 18.058594 L 23.046875 19.316406 L 21.734375 19.519531 C 21.558594 19.542969 21.382812 19.667969 21.332031 19.84375 Z M 23.449219 20.273438 C 23.625 20.25 23.75 20.148438 23.828125 19.996094 L 24.078125 19.46875 L 24.332031 19.996094 C 24.40625 20.148438 24.53125 20.25 24.707031 20.273438 L 25.3125 20.375 L 24.859375 20.828125 C 24.757812 20.953125 24.707031 21.105469 24.734375 21.257812 L 24.835938 21.859375 L 24.332031 21.585938 C 24.253906 21.535156 24.179688 21.507812 24.078125 21.507812 C 23.976562 21.507812 23.902344 21.535156 23.828125 21.585938 L 23.324219 21.859375 L 23.421875 21.257812 C 23.449219 21.105469 23.398438 20.929688 23.296875 20.828125 L 22.84375 20.375 Z M 23.449219 20.273438 " fill-opacity="1" fill-rule="nonzero"/></svg>