<svg xmlns="http://www.w3.org/2000/svg" xmlns:xlink="http://www.w3.org/1999/xlink" width="50" zoomAndPan="magnify" viewBox="0 0 37.5 37.499999" height="50" preserveAspectRatio="xMidYMid meet" version="1.0"><defs><clipPath id="76debbd272"><path d="M 4.445312 5 L 32.945312 5 L 32.945312 33.195312 L 4.445312 33.195312 Z M 4.445312 5 " clip-rule="nonzero"/></clipPath></defs><g clip-path="url(#76debbd272)"><path fill="#000000" d="M 29.636719 17.902344 L 29.03125 17.902344 L 22.410156 8.527344 C 21.976562 3.96875 15.417969 3.957031 14.976562 8.527344 L 8.359375 17.902344 C 6.347656 17.691406 4.53125 19.035156 4.519531 21.109375 L 4.519531 29.988281 C 4.519531 30.414062 4.601562 30.820312 4.765625 31.214844 C 4.929688 31.605469 5.164062 31.953125 5.46875 32.253906 C 5.769531 32.554688 6.121094 32.785156 6.515625 32.949219 C 6.910156 33.113281 7.324219 33.195312 7.753906 33.195312 L 29.636719 33.195312 C 30.0625 33.195312 30.476562 33.113281 30.871094 32.949219 C 31.269531 32.785156 31.617188 32.554688 31.921875 32.253906 C 32.222656 31.953125 32.457031 31.605469 32.621094 31.214844 C 32.785156 30.820312 32.867188 30.414062 32.867188 29.988281 L 32.867188 21.109375 C 32.867188 20.683594 32.785156 20.277344 32.621094 19.882812 C 32.457031 19.492188 32.222656 19.144531 31.921875 18.84375 C 31.617188 18.542969 31.269531 18.3125 30.871094 18.148438 C 30.476562 17.984375 30.0625 17.902344 29.636719 17.902344 Z M 18.695312 6.558594 C 18.988281 6.5625 19.273438 6.621094 19.542969 6.734375 C 19.816406 6.847656 20.054688 7.007812 20.261719 7.214844 C 20.472656 7.421875 20.632812 7.664062 20.742188 7.933594 C 20.855469 8.203125 20.910156 8.484375 20.910156 8.777344 C 20.910156 9.070312 20.855469 9.351562 20.742188 9.621094 C 20.632812 9.894531 20.472656 10.132812 20.261719 10.339844 C 20.054688 10.546875 19.816406 10.710938 19.542969 10.824219 C 19.273438 10.9375 18.988281 10.996094 18.695312 10.996094 C 18.398438 10.996094 18.117188 10.9375 17.84375 10.824219 C 17.570312 10.710938 17.332031 10.546875 17.125 10.339844 C 16.917969 10.132812 16.757812 9.894531 16.644531 9.621094 C 16.53125 9.351562 16.476562 9.070312 16.476562 8.777344 C 16.476562 8.484375 16.53125 8.203125 16.644531 7.933594 C 16.757812 7.664062 16.917969 7.421875 17.125 7.214844 C 17.332031 7.007812 17.570312 6.847656 17.84375 6.734375 C 18.117188 6.621094 18.398438 6.5625 18.695312 6.558594 Z M 15.398438 10.507812 C 15.726562 11.109375 16.183594 11.582031 16.777344 11.933594 C 17.367188 12.28125 18.007812 12.457031 18.695312 12.457031 C 19.382812 12.457031 20.019531 12.28125 20.613281 11.933594 C 21.203125 11.582031 21.660156 11.109375 21.988281 10.507812 L 27.207031 17.902344 L 10.179688 17.902344 Z M 31.375 29.988281 C 31.375 30.21875 31.332031 30.4375 31.242188 30.648438 C 31.15625 30.859375 31.027344 31.046875 30.867188 31.207031 C 30.703125 31.371094 30.515625 31.496094 30.300781 31.582031 C 30.089844 31.671875 29.867188 31.714844 29.636719 31.714844 L 7.753906 31.714844 C 7.523438 31.714844 7.300781 31.671875 7.085938 31.582031 C 6.875 31.496094 6.683594 31.371094 6.523438 31.207031 C 6.359375 31.046875 6.234375 30.859375 6.144531 30.648438 C 6.054688 30.4375 6.011719 30.21875 6.011719 29.988281 L 6.011719 21.109375 C 6.011719 20.878906 6.054688 20.660156 6.144531 20.449219 C 6.234375 20.238281 6.359375 20.050781 6.523438 19.890625 C 6.683594 19.726562 6.875 19.601562 7.085938 19.515625 C 7.300781 19.425781 7.523438 19.382812 7.753906 19.382812 L 29.636719 19.382812 C 29.867188 19.382812 30.089844 19.425781 30.300781 19.515625 C 30.515625 19.601562 30.703125 19.726562 30.867188 19.890625 C 31.027344 20.050781 31.15625 20.238281 31.242188 20.449219 C 31.332031 20.660156 31.375 20.878906 31.375 21.109375 Z M 31.375 29.988281 " fill-opacity="1" fill-rule="nonzero"/></g><path fill="#000000" d="M 22.734375 27.25 L 21.496094 27.25 C 21.289062 27.25 21.113281 27.179688 20.96875 27.035156 C 20.824219 26.890625 20.75 26.714844 20.75 26.511719 L 20.75 23.097656 C 20.746094 22.894531 20.671875 22.722656 20.527344 22.582031 C 20.382812 22.4375 20.207031 22.367188 20.003906 22.367188 C 19.800781 22.367188 19.625 22.4375 19.480469 22.582031 C 19.335938 22.722656 19.261719 22.894531 19.257812 23.097656 L 19.257812 26.511719 C 19.257812 26.804688 19.316406 27.089844 19.429688 27.359375 C 19.542969 27.632812 19.703125 27.871094 19.914062 28.082031 C 20.125 28.289062 20.367188 28.449219 20.640625 28.5625 C 20.914062 28.675781 21.199219 28.730469 21.496094 28.730469 L 22.734375 28.730469 C 22.9375 28.726562 23.109375 28.65625 23.253906 28.511719 C 23.394531 28.367188 23.46875 28.195312 23.46875 27.992188 C 23.46875 27.789062 23.394531 27.617188 23.253906 27.472656 C 23.109375 27.328125 22.9375 27.253906 22.734375 27.25 Z M 22.734375 27.25 " fill-opacity="1" fill-rule="nonzero"/><path fill="#000000" d="M 28.082031 27.25 L 26.84375 27.25 C 26.640625 27.25 26.464844 27.179688 26.316406 27.035156 C 26.171875 26.890625 26.097656 26.714844 26.097656 26.511719 L 26.097656 23.097656 C 26.097656 22.894531 26.023438 22.722656 25.875 22.582031 C 25.730469 22.4375 25.554688 22.367188 25.351562 22.367188 C 25.148438 22.367188 24.972656 22.4375 24.828125 22.582031 C 24.683594 22.722656 24.609375 22.894531 24.605469 23.097656 L 24.605469 26.511719 C 24.605469 26.804688 24.664062 27.089844 24.777344 27.359375 C 24.890625 27.632812 25.054688 27.871094 25.261719 28.082031 C 25.472656 28.289062 25.714844 28.449219 25.988281 28.5625 C 26.261719 28.675781 26.546875 28.730469 26.84375 28.730469 L 28.082031 28.730469 C 28.285156 28.726562 28.457031 28.65625 28.601562 28.511719 C 28.746094 28.367188 28.816406 28.195312 28.816406 27.992188 C 28.816406 27.789062 28.746094 27.617188 28.601562 27.472656 C 28.457031 27.328125 28.285156 27.253906 28.082031 27.25 Z M 28.082031 27.25 " fill-opacity="1" fill-rule="nonzero"/><path fill="#000000" d="M 12.035156 23.816406 C 12.238281 23.816406 12.414062 23.742188 12.554688 23.597656 C 12.699219 23.453125 12.769531 23.28125 12.769531 23.078125 C 12.769531 22.875 12.699219 22.703125 12.554688 22.558594 C 12.414062 22.414062 12.238281 22.339844 12.035156 22.339844 L 10.214844 22.339844 C 8.03125 22.378906 8.03125 26.246094 10.214844 26.285156 L 11.105469 26.28125 C 11.246094 26.417969 11.308594 26.582031 11.289062 26.777344 C 11.300781 26.964844 11.246094 27.128906 11.125 27.269531 L 9.304688 27.269531 C 9.101562 27.269531 8.925781 27.34375 8.777344 27.488281 C 8.632812 27.632812 8.5625 27.804688 8.5625 28.011719 C 8.5625 28.214844 8.632812 28.390625 8.777344 28.535156 C 8.925781 28.679688 9.101562 28.75 9.304688 28.75 L 11.125 28.75 C 12.054688 28.75 12.78125 27.882812 12.78125 26.777344 C 12.78125 25.671875 12.054688 24.804688 11.125 24.804688 L 10.238281 24.808594 C 10.09375 24.671875 10.035156 24.507812 10.050781 24.3125 C 10.039062 24.125 10.09375 23.960938 10.214844 23.816406 Z M 12.035156 23.816406 " fill-opacity="1" fill-rule="nonzero"/><path fill="#000000" d="M 17.390625 23.828125 C 17.59375 23.824219 17.765625 23.75 17.910156 23.605469 C 18.054688 23.460938 18.125 23.289062 18.125 23.085938 C 18.125 22.882812 18.054688 22.710938 17.910156 22.566406 C 17.765625 22.421875 17.59375 22.351562 17.390625 22.347656 L 14.660156 22.347656 C 14.453125 22.347656 14.277344 22.417969 14.132812 22.5625 C 13.988281 22.707031 13.914062 22.882812 13.914062 23.085938 L 13.914062 28.019531 C 13.914062 28.222656 13.988281 28.398438 14.132812 28.542969 C 14.277344 28.6875 14.453125 28.757812 14.660156 28.757812 L 17.390625 28.757812 C 17.59375 28.757812 17.765625 28.683594 17.910156 28.539062 C 18.054688 28.394531 18.125 28.222656 18.125 28.019531 C 18.125 27.816406 18.054688 27.644531 17.910156 27.5 C 17.765625 27.355469 17.59375 27.28125 17.390625 27.28125 L 15.40625 27.28125 L 15.40625 26.292969 L 17.390625 26.292969 C 17.59375 26.289062 17.765625 26.214844 17.910156 26.074219 C 18.054688 25.929688 18.125 25.753906 18.125 25.554688 C 18.125 25.351562 18.054688 25.179688 17.910156 25.035156 C 17.765625 24.890625 17.59375 24.816406 17.390625 24.8125 L 15.40625 24.8125 L 15.40625 23.828125 Z M 17.390625 23.828125 " fill-opacity="1" fill-rule="nonzero"/></svg>